<svg version="1.1" xmlns="http://www.w3.org/2000/svg" xmlns:xlink="http://www.w3.org/1999/xlink">
  <symbol id="cloud" viewBox="0 0 60 60">
    <g>
      <path
        d="M50.976 20.694c-.528-9-7.947-16.194-16.892-16.194-5.43 0-10.688 2.663-13.945 7.008-.075-.039-.154-.066-.23-.102a9.322 9.322 0 0 0-.604-.269 9.062 9.062 0 0 0-.962-.317c-.115-.031-.229-.063-.345-.089a9.567 9.567 0 0 0-.687-.125c-.101-.015-.2-.035-.302-.046A9.096 9.096 0 0 0 16 10.5c-4.963 0-9 4.037-9 9 0 .129.008.255.017.381C2.857 22.148 0 26.899 0 31.654 0 38.737 5.762 44.5 12.845 44.5H18a1 1 0 1 0 0-2h-5.155C6.865 42.5 2 37.635 2 31.654c0-4.154 2.705-8.466 6.433-10.253L9 21.13v-.63c0-.12.008-.242.015-.365l.011-.185-.013-.194C9.007 19.671 9 19.586 9 19.5c0-3.859 3.141-7 7-7a6.995 6.995 0 0 1 1.15.103c.267.044.53.102.789.177.035.01.071.017.106.027.285.087.563.197.835.321.071.032.14.067.21.101A6.995 6.995 0 0 1 23 19.5a1 1 0 1 0 2 0 8.98 8.98 0 0 0-3.2-6.871C24.667 8.879 29.388 6.5 34.084 6.5c7.745 0 14.178 6.135 14.849 13.888-1.021-.072-2.552-.109-4.083.124a1 1 0 0 0 .3 1.977c2.227-.337 4.548-.021 4.684-.002C54.49 23.372 58 27.661 58 32.472 58 38.001 53.501 42.5 47.972 42.5H44a1 1 0 1 0 0 2h3.972C54.604 44.5 60 39.104 60 32.472c0-5.489-3.827-10.412-9.024-11.778z"/>
      <path
        d="M38.293 45.793L32 52.086V31.5a1 1 0 1 0-2 0v20.586l-6.293-6.293a.999.999 0 1 0-1.414 1.414l7.999 7.999a.99.99 0 0 0 .326.217.991.991 0 0 0 1.09-.217l7.999-7.999a.999.999 0 1 0-1.414-1.414z"/>
    </g>
  </symbol>

  <symbol id="icon-search" viewBox="0 0 451 451">
    <g>
      <path
        d="M447.05 428l-109.6-109.6c29.4-33.8 47.2-77.9 47.2-126.1C384.65 86.2 298.35 0 192.35 0 86.25 0 .05 86.3.05 192.3s86.3 192.3 192.3 192.3c48.2 0 92.3-17.8 126.1-47.2L428.05 447c2.6 2.6 6.1 4 9.5 4s6.9-1.3 9.5-4c5.2-5.2 5.2-13.8 0-19zM26.95 192.3c0-91.2 74.2-165.3 165.3-165.3 91.2 0 165.3 74.2 165.3 165.3s-74.1 165.4-165.3 165.4c-91.1 0-165.3-74.2-165.3-165.4z"/>
    </g>
  </symbol>

  <symbol id="icon-close" viewBox="0 0 512 512">
    <path
      d="M256 48C141.1 48 48 141.1 48 256s93.1 208 208 208 208-93.1 208-208S370.9 48 256 48zm52.7 283.3L256 278.6l-52.7 52.7c-6.2 6.2-16.4 6.2-22.6 0-3.1-3.1-4.7-7.2-4.7-11.3 0-4.1 1.6-8.2 4.7-11.3l52.7-52.7-52.7-52.7c-3.1-3.1-4.7-7.2-4.7-11.3 0-4.1 1.6-8.2 4.7-11.3 6.2-6.2 16.4-6.2 22.6 0l52.7 52.7 52.7-52.7c6.2-6.2 16.4-6.2 22.6 0 6.2 6.2 6.2 16.4 0 22.6L278.6 256l52.7 52.7c6.2 6.2 6.2 16.4 0 22.6-6.2 6.3-16.4 6.3-22.6 0z"/>
  </symbol>

  <symbol id="icon-google-logo" viewBox="0 0 256 262">
    <path
      d="M255.878 133.451c0-10.734-.871-18.567-2.756-26.69H130.55v48.448h71.947c-1.45 12.04-9.283 30.172-26.69 42.356l-.244 1.622 38.755 30.023 2.685.268c24.659-22.774 38.875-56.282 38.875-96.027"/>
    <path
      d="M130.55 261.1c35.248 0 64.839-11.605 86.453-31.622l-41.196-31.913c-11.024 7.688-25.82 13.055-45.257 13.055-34.523 0-63.824-22.773-74.269-54.25l-1.531.13-40.298 31.187-.527 1.465C35.393 231.798 79.49 261.1 130.55 261.1"/>
    <path
      d="M56.281 156.37c-2.756-8.123-4.351-16.827-4.351-25.82 0-8.994 1.595-17.697 4.206-25.82l-.073-1.73L15.26 71.312l-1.335.635C5.077 89.644 0 109.517 0 130.55s5.077 40.905 13.925 58.602l42.356-32.782"/>
    <path
      d="M130.55 50.479c24.514 0 41.05 10.589 50.479 19.438l36.844-35.974C195.245 12.91 165.798 0 130.55 0 79.49 0 35.393 29.301 13.925 71.947l42.211 32.783c10.59-31.477 39.891-54.251 74.414-54.251"/>
  </symbol>
</svg>
