<svg version="1.1" xmlns="http://www.w3.org/2000/svg" xmlns:xlink="http://www.w3.org/1999/xlink">
  <symbol id="cloud" viewBox="0 0 60 60">
    <g>
      <path
        d="M50.976 20.694c-.528-9-7.947-16.194-16.892-16.194-5.43 0-10.688 2.663-13.945 7.008-.075-.039-.154-.066-.23-.102a9.322 9.322 0 0 0-.604-.269 9.062 9.062 0 0 0-.962-.317c-.115-.031-.229-.063-.345-.089a9.567 9.567 0 0 0-.687-.125c-.101-.015-.2-.035-.302-.046A9.096 9.096 0 0 0 16 10.5c-4.963 0-9 4.037-9 9 0 .129.008.255.017.381C2.857 22.148 0 26.899 0 31.654 0 38.737 5.762 44.5 12.845 44.5H18a1 1 0 1 0 0-2h-5.155C6.865 42.5 2 37.635 2 31.654c0-4.154 2.705-8.466 6.433-10.253L9 21.13v-.63c0-.12.008-.242.015-.365l.011-.185-.013-.194C9.007 19.671 9 19.586 9 19.5c0-3.859 3.141-7 7-7a6.995 6.995 0 0 1 1.15.103c.267.044.53.102.789.177.035.01.071.017.106.027.285.087.563.197.835.321.071.032.14.067.21.101A6.995 6.995 0 0 1 23 19.5a1 1 0 1 0 2 0 8.98 8.98 0 0 0-3.2-6.871C24.667 8.879 29.388 6.5 34.084 6.5c7.745 0 14.178 6.135 14.849 13.888-1.021-.072-2.552-.109-4.083.124a1 1 0 0 0 .3 1.977c2.227-.337 4.548-.021 4.684-.002C54.49 23.372 58 27.661 58 32.472 58 38.001 53.501 42.5 47.972 42.5H44a1 1 0 1 0 0 2h3.972C54.604 44.5 60 39.104 60 32.472c0-5.489-3.827-10.412-9.024-11.778z"/>
      <path
        d="M38.293 45.793L32 52.086V31.5a1 1 0 1 0-2 0v20.586l-6.293-6.293a.999.999 0 1 0-1.414 1.414l7.999 7.999a.99.99 0 0 0 .326.217.991.991 0 0 0 1.09-.217l7.999-7.999a.999.999 0 1 0-1.414-1.414z"/>
    </g>
  </symbol>

  <symbol id="icon-search" viewBox="0 0 451 451">
    <g>
      <path
        d="M447.05 428l-109.6-109.6c29.4-33.8 47.2-77.9 47.2-126.1C384.65 86.2 298.35 0 192.35 0 86.25 0 .05 86.3.05 192.3s86.3 192.3 192.3 192.3c48.2 0 92.3-17.8 126.1-47.2L428.05 447c2.6 2.6 6.1 4 9.5 4s6.9-1.3 9.5-4c5.2-5.2 5.2-13.8 0-19zM26.95 192.3c0-91.2 74.2-165.3 165.3-165.3 91.2 0 165.3 74.2 165.3 165.3s-74.1 165.4-165.3 165.4c-91.1 0-165.3-74.2-165.3-165.4z"/>
    </g>
  </symbol>

  <symbol id="icon-close" viewBox="0 0 512 512">
    <path
      d="M256 48C141.1 48 48 141.1 48 256s93.1 208 208 208 208-93.1 208-208S370.9 48 256 48zm52.7 283.3L256 278.6l-52.7 52.7c-6.2 6.2-16.4 6.2-22.6 0-3.1-3.1-4.7-7.2-4.7-11.3 0-4.1 1.6-8.2 4.7-11.3l52.7-52.7-52.7-52.7c-3.1-3.1-4.7-7.2-4.7-11.3 0-4.1 1.6-8.2 4.7-11.3 6.2-6.2 16.4-6.2 22.6 0l52.7 52.7 52.7-52.7c6.2-6.2 16.4-6.2 22.6 0 6.2 6.2 6.2 16.4 0 22.6L278.6 256l52.7 52.7c6.2 6.2 6.2 16.4 0 22.6-6.2 6.3-16.4 6.3-22.6 0z"/>
  </symbol>

  <symbol id="icon-google-logo" viewBox="0 0 512 512">
    <path fill="#fbbb00" d="M113.47 309.408L95.648 375.94l-65.139 1.378C11.042 341.211 0 299.9 0 256c0-42.451 10.324-82.483 28.624-117.732h.014L86.63 148.9l25.404 57.644c-5.317 15.501-8.215 32.141-8.215 49.456.002 18.792 3.406 36.797 9.651 53.408z"/>
    <path fill="#518ef8" d="M507.527 208.176C510.467 223.662 512 239.655 512 256c0 18.328-1.927 36.206-5.598 53.451-12.462 58.683-45.025 109.925-90.134 146.187l-.014-.014-73.044-3.727-10.338-64.535c29.932-17.554 53.324-45.025 65.646-77.911h-136.89V208.176h245.899z"/>
    <path fill="#28b446" d="M416.253 455.624l.014.014C372.396 490.901 316.666 512 256 512c-97.491 0-182.252-54.491-225.491-134.681l82.961-67.91c21.619 57.698 77.278 98.771 142.53 98.771 28.047 0 54.323-7.582 76.87-20.818l83.383 68.262z"/>
    <path fill="#f14336" d="M419.404 58.936l-82.933 67.896C313.136 112.246 285.552 103.82 256 103.82c-66.729 0-123.429 42.957-143.965 102.724l-83.397-68.276h-.014C71.23 56.123 157.06 0 256 0c62.115 0 119.068 22.126 163.404 58.936z"/>
  </symbol>

  <symbol id="icon-heart" viewBox="0 -28 512 512">
    <path d="M256 455.516a30.022 30.022 0 0 1-19.793-7.438c-20.684-18.086-40.625-35.082-58.219-50.074l-.09-.078c-51.582-43.957-96.125-81.918-127.117-119.313C16.137 236.81 0 197.172 0 153.871c0-42.07 14.426-80.883 40.617-109.293C67.121 15.832 103.488 0 143.031 0c29.555 0 56.621 9.344 80.446 27.77C235.5 37.07 246.398 48.453 256 61.73c9.605-13.277 20.5-24.66 32.527-33.96C312.352 9.344 339.418 0 368.973 0c39.539 0 75.91 15.832 102.414 44.578C497.578 72.988 512 111.801 512 153.871c0 43.3-16.133 82.938-50.777 124.738-30.993 37.399-75.532 75.356-127.106 119.309-17.625 15.016-37.597 32.039-58.328 50.168a30.046 30.046 0 0 1-19.789 7.43zM143.031 29.992c-31.066 0-59.605 12.399-80.367 34.914-21.07 22.856-32.676 54.45-32.676 88.965 0 36.418 13.535 68.988 43.883 105.606 29.332 35.394 72.961 72.574 123.477 115.625l.093.078c17.66 15.05 37.68 32.113 58.516 50.332 20.961-18.254 41.012-35.344 58.707-50.418 50.512-43.051 94.137-80.223 123.469-115.617 30.344-36.618 43.879-69.188 43.879-105.606 0-34.516-11.606-66.11-32.676-88.965-20.758-22.515-49.3-34.914-80.363-34.914-22.758 0-43.653 7.235-62.102 21.5-16.441 12.719-27.894 28.797-34.61 40.047-3.452 5.785-9.53 9.238-16.261 9.238s-12.809-3.453-16.262-9.238c-6.71-11.25-18.164-27.328-34.61-40.047-18.448-14.265-39.343-21.5-62.097-21.5zm0 0"/>
  </symbol>
  <symbol id="icon-heart-fill" viewBox="0 -28 512 512">
    <path d="M471.383 44.578C444.879 15.832 408.512 0 368.973 0c-29.555 0-56.621 9.344-80.45 27.77C276.5 37.07 265.605 48.45 256 61.73c-9.602-13.277-20.5-24.66-32.527-33.96C199.648 9.344 172.582 0 143.027 0c-39.539 0-75.91 15.832-102.414 44.578C14.426 72.988 0 111.801 0 153.871c0 43.3 16.137 82.938 50.781 124.742 30.992 37.395 75.535 75.356 127.117 119.313 17.614 15.012 37.579 32.027 58.309 50.152A30.023 30.023 0 0 0 256 455.516a30.03 30.03 0 0 0 19.785-7.43c20.73-18.129 40.707-35.152 58.328-50.172 51.575-43.95 96.117-81.906 127.11-119.305C495.867 236.81 512 197.172 512 153.867c0-42.066-14.426-80.879-40.617-109.289zm0 0"/>
  </symbol>

  <symbol id="icon-sketch" xmlns:xlink="http://www.w3.org/1999/xlink" viewBox="0 0 95 86">
    <use fill="#EA6C00" transform="translate(.17 30.901)" xlink:href="#a"/>
    <use fill="#EA6C00" transform="matrix(-1 0 0 1 94.64 30.901)" xlink:href="#b"/>
    <use fill="#FDAD00" transform="translate(19.3 30.901)" xlink:href="#c"/>
    <use fill="#FDD231" transform="translate(19.3 .42)" xlink:href="#d"/>
    <use fill="#FDD231" transform="matrix(-1 0 0 1 75.5 .42)" xlink:href="#e"/>
    <use fill="#FDAD00" transform="matrix(-1 0 0 1 94.64 3.234)" xlink:href="#f"/>
    <use fill="#FDAD00" transform="translate(.17 3.234)" xlink:href="#g"/>
    <use fill="#FEEEB7" transform="translate(19.3 .42)" xlink:href="#h"/>
    <defs>
      <path id="a" fill-rule="evenodd" d="M19.131 0l28.1 55L0 0h19.131z"/>
      <path id="b" fill-rule="evenodd" d="M19.131 0l28.1 55L0 0h19.131z"/>
      <path id="c" fill-rule="evenodd" d="M0 0h56.2L28.1 55 0 0z"/>
      <path id="d" fill-rule="evenodd" d="M28.1 0L1.479 2.814 0 30.481 28.1 0z"/>
      <path id="e" fill-rule="evenodd" d="M28.1 0L1.479 2.814 0 30.481 28.1 0z"/>
      <path id="f" fill-rule="evenodd" d="M0 27.667L20.61 0l-1.479 27.667H0z"/>
      <path id="g" fill-rule="evenodd" d="M0 27.667L20.61 0l-1.479 27.667H0z"/>
      <path id="h" fill-rule="evenodd" d="M28.1 0L0 30.481h56.2L28.1 0z"/>
    </defs>
  </symbol>

  <symbol id="icon-figma" viewBox="0 0 200 300">
    <path id="path0_fill" d="M50 300c27.6 0 50-22.4 50-50v-50H50c-27.6 0-50 22.4-50 50s22.4 50 50 50z" fill="#0acf83"/>
    <path id="path1_fill" d="M0 150c0-27.6 22.4-50 50-50h50v100H50c-27.6 0-50-22.4-50-50z" fill="#a259ff"/>
    <path id="path1_fill_1_" d="M0 50C0 22.4 22.4 0 50 0h50v100H50C22.4 100 0 77.6 0 50z" fill="#f24e1e"/>
    <path id="path2_fill" d="M100 0h50c27.6 0 50 22.4 50 50s-22.4 50-50 50h-50V0z" fill="#ff7262"/>
    <path id="path3_fill" d="M200 150c0 27.6-22.4 50-50 50s-50-22.4-50-50 22.4-50 50-50 50 22.4 50 50z" fill="#1abcfe"/>
  </symbol>

  <symbol id="icon-adobe-xd" viewBox="0 0 240 234">
    <path d="M10 10h220v214H10z" fill="#2e001e"/>
    <path d="M0 0v234h240V0H0zm10 10h220v214H10V10z" class="st1"/>
    <path fill="#ff2bc2" d="M174.3 98.3c-1.5-.7-3.4-1-5.8-1-12.6 0-21 9.7-21 25.8 0 18.4 8.6 25.8 19.8 25.8 2.4 0 5-.3 6.9-1.1V98.3h.1zm-44.8 25.6c0-23.3 15-41.5 39.6-41.5 2.1 0 3.2 0 5.2.2v-26c0-.6.5-1 1-1h16.1c.8 0 1 .3 1 .8v91.4c0 2.7 0 6.1.5 9.8 0 .7 0 .8-.6 1.1-8.4 4-17.2 5.8-25.6 5.8-21.7 0-37.2-13.4-37.2-40.6zm-34.1-16.2l28 54.3c.5.8.2 1.6-.6 1.6h-17.4c-1.1 0-1.6-.3-2.1-1.3-6.4-13.2-12.9-26.9-19.6-41.1h-.2c-6 13.4-12.6 28-19 41.2-.5.8-1 1.1-1.8 1.1H46.1c-1 0-1.1-.8-.6-1.4l27.4-52.7L46.4 57c-.6-.8 0-1.5.7-1.5h17.2c1 0 1.5.2 1.8 1.1C72.4 69.9 78.8 83 84.8 96.4h.2c5.8-13.2 12.2-26.5 18.3-39.6.5-.8.8-1.3 1.8-1.3h16.1c.8 0 1.1.6.6 1.5l-26.4 50.7z" class="st1"/>
  </symbol>

  <symbol id="icon-photoshop" viewBox="0 130.75 595.28 580.4">
    <radialGradient id="a" cx="-183.69" cy="328.97" r=".76" gradientTransform="matrix(545.6736 0 0 528.3113 100439.305 -173525.125)" gradientUnits="userSpaceOnUse">
      <stop offset="0" stop-color="#34364e" stop-opacity=".98"/>
      <stop offset="1" stop-color="#0c0824"/>
    </radialGradient>
    <path fill="#0c0824" d="M24.803 155.549h545.674v530.792H24.803V155.549z"/>
    <path fill="#31c5f0" d="M24.803 155.549h545.674v530.792H24.803V155.549zM0 711.145h595.28V130.746H0v580.399zm401.318-342.287c-19.595 0-26.291 9.921-26.291 18.106 0 8.929 4.464 15.13 30.756 28.772 38.941 18.851 51.095 36.957 51.095 63.497 0 39.685-30.26 61.016-71.186 61.016-21.579 0-40.182-4.465-50.847-10.665-1.736-.744-1.984-1.984-1.984-3.969v-36.461c0-2.48 1.24-3.225 2.977-1.984 15.626 10.17 33.484 14.634 49.854 14.634 19.595 0 27.78-8.185 27.78-19.347 0-8.929-5.705-16.866-30.757-29.764-35.221-16.866-49.854-33.98-49.854-62.504 0-31.997 25.052-58.536 68.457-58.536 21.331 0 36.213 3.225 44.398 6.945 1.984 1.24 2.48 3.224 2.48 4.96v33.98c0 1.984-1.24 3.225-3.721 2.48-10.913-6.943-27.035-11.16-43.157-11.16zm-213.309 29.516c5.705.496 10.17.496 20.091.496 29.021 0 56.304-10.169 56.304-49.606 0-31.5-19.595-47.375-52.583-47.375-9.921 0-19.347.496-23.812.744v95.741zM143.86 266.668c0-1.736 3.473-2.977 5.456-2.977 15.875-.744 39.438-1.24 63.993-1.24 68.705 0 95.492 37.701 95.492 85.82 0 63-45.638 90.036-101.693 90.036-9.425 0-12.649-.496-19.347-.496v95.245c0 1.984-.744 2.976-2.976 2.976h-37.949c-1.984 0-2.977-.744-2.977-2.976V266.668z"/>
  </symbol>

  <symbol id="icon-rgb" viewBox="0 0 499.2 499.2">
    <circle cx="249.6" cy="320.4" r="166.4" fill="#73dd8a"/>
    <circle cx="166.4" cy="179.6" r="166.4" fill="#eaa315"/>
    <path fill="#8552b2" d="M215.2 297.2c-64.8-64.8-64.8-170.4 0-236C280-3.6 385.6.4 447.2 58"/>
    <path fill="#ffe000" d="M249.6 323.6C224.8 338 196.8 346 166.4 346s-58.4-8-83.2-22.4c1.6 90.4 76 163.2 166.4 163.2S414.4 414 416 323.6C391.2 338 363.2 346 332.8 346c-30.4 0-58.4-8-83.2-22.4z"/>
    <path fill="#ff69bb" d="M166.4 176.4c1.6-60 34.4-112 83.2-140.8-24.8-14.4-52.8-22.4-83.2-22.4C74.4 13.2 0 87.6 0 179.6c0 61.6 33.6 115.2 83.2 144v-4c0-60.8 33.6-114.4 83.2-143.2z"/>
    <path fill="#ef3388" d="M0 179.6c0 61.6 33.6 115.2 83.2 144v-4c0-61.6 33.6-115.2 83.2-144 1.6-60 34.4-112 83.2-140.8-24.8-14.4-52.8-22.4-83.2-22.4"/>
    <path fill="#2ee5e5" d="M499.2 179.6c0-92-74.4-166.4-166.4-166.4-30.4 0-58.4 8-83.2 22.4 48.8 28 81.6 80.8 83.2 140.8 49.6 28.8 83.2 82.4 83.2 144v4c49.6-29.6 83.2-83.2 83.2-144.8z"/>
    <path fill="#1fc5c9" d="M332.8 13.2c-30.4 0-58.4 8-83.2 22.4 48.8 28 81.6 80.8 83.2 140.8 49.6 28.8 83.2 82.4 83.2 144v4c49.6-28.8 83.2-82.4 83.2-144"/>
    <path fill="#3f3e3b" d="M166.4 176.4v4c0 61.6 33.6 115.2 83.2 144 49.6-28.8 83.2-82.4 83.2-144v-4C308 162 280 154 249.6 154s-58.4 8-83.2 22.4z"/>
    <path fill="#f4c500" d="M378.4 426c22.4-24.8 36.8-63.2 37.6-104-24.8 14.4-52.8 23.2-83.2 23.2s-58.4-8-83.2-22.4C224.8 338 196.8 346 166.4 346s-58.4-9.6-83.2-24c.8 40 15.2 80 37.6 104h257.6z"/>
    <g fill="#ffdb2c">
      <circle cx="220" cy="222" r="4.8"/>
      <circle cx="249.6" cy="222" r="4.8"/>
      <circle cx="279.2" cy="222" r="4.8"/>
    </g>
  </symbol>
  <symbol id="icon-grid" viewBox="0 0 512 512">
    <g>
      <g>
        <path d="M407 76H105C47.103 76 0 123.103 0 181v150c0 57.897 47.103 105 105 105h302c57.897 0 105-47.103 105-105V181c0-57.897-47.103-105-105-105zm75 255c0 41.355-33.645 75-75 75H105c-41.355 0-75-33.645-75-75V181c0-41.355 33.645-75 75-75h302c41.355 0 75 33.645 75 75v150z"/>
      </g>
    </g>
  </symbol>
  <symbol id="icon-comment" viewBox="0 0 369.98 369.98">
    <g>
      <path d="M314.821 47.893c-34.797-28.139-80.904-43.636-129.83-43.636S89.958 19.754 55.161 47.894C19.59 76.661 0 115.142 0 156.249c0 41.108 19.59 79.591 55.161 108.356 34.797 28.141 80.904 43.639 129.83 43.639 4.981 0 10-.166 14.995-.496l31.509 51.959a12.513 12.513 0 0 0 10.399 6.018c.097.002.191.002.29.002 4.155 0 8.051-2.068 10.376-5.529l66.711-99.326c32.727-28.33 50.711-65.371 50.711-104.621 0-41.11-19.589-79.591-55.161-108.358zm-13.917 195.78l-58.183 86.332-25.372-41.838a12.5 12.5 0 0 0-11.948-5.956 203.335 203.335 0 0 1-20.412 1.029c-88.22 0-159.991-56.97-159.991-126.994 0-70.023 71.771-126.992 159.991-126.992 88.22 0 159.991 56.969 159.991 126.992.002 32.639-15.652 63.686-44.076 87.427z"/>
    </g>
  </symbol>
  <symbol id="icon-download" viewBox="0 0 471.2 471.2">
    <g>
      <g>
        <path d="M457.7 230.15c-7.5 0-13.5 6-13.5 13.5v122.8c0 33.4-27.2 60.5-60.5 60.5H87.5c-33.4 0-60.5-27.2-60.5-60.5v-124.8c0-7.5-6-13.5-13.5-13.5s-13.5 6-13.5 13.5v124.8c0 48.3 39.3 87.5 87.5 87.5h296.2c48.3 0 87.5-39.3 87.5-87.5v-122.8c0-7.4-6-13.5-13.5-13.5z"/>
        <path d="M226.1 346.75c2.6 2.6 6.1 4 9.5 4s6.9-1.3 9.5-4l85.8-85.8c5.3-5.3 5.3-13.8 0-19.1-5.3-5.3-13.8-5.3-19.1 0l-62.7 62.8V30.75c0-7.5-6-13.5-13.5-13.5s-13.5 6-13.5 13.5v273.9l-62.8-62.8c-5.3-5.3-13.8-5.3-19.1 0-5.3 5.3-5.3 13.8 0 19.1l85.9 85.8z"/>
      </g>
    </g>
  </symbol>
  <symbol id="icon-calendar" viewBox="0 0 60 60">
    <g>
      <path d="M57 4h-7V1a1 1 0 0 0-1-1h-7a1 1 0 0 0-1 1v3H19V1a1 1 0 0 0-1-1h-7a1 1 0 0 0-1 1v3H3a1 1 0 0 0-1 1v54a1 1 0 0 0 1 1h54a1 1 0 0 0 1-1V5a1 1 0 0 0-1-1zM43 2h5v6h-5V2zM12 2h5v6h-5V2zM4 6h6v3a1 1 0 0 0 1 1h7a1 1 0 0 0 1-1V6h22v3a1 1 0 0 0 1 1h7a1 1 0 0 0 1-1V6h6v9H4V6zm0 52V17h52v41H4z"/>
      <path d="M38 23H11v29h38V23H38zm-7 2h7v7h-7v-7zm7 16h-7v-7h7v7zm-16-7h7v7h-7v-7zm0-9h7v7h-7v-7zm-9 0h7v7h-7v-7zm0 9h7v7h-7v-7zm7 16h-7v-7h7v7zm9 0h-7v-7h7v7zm9 0h-7v-7h7v7zm9 0h-7v-7h7v7zm0-9h-7v-7h7v7zm0-16v7h-7v-7h7z"/>
    </g>
  </symbol>

  <symbol id="icon-moon-fill" viewBox="0 0 312.81 312.81">
    <g>
      <g>
        <path d="M305.2 178.159c-3.2-.8-6.4 0-9.2 2-10.4 8.8-22.4 16-35.6 20.8-12.4 4.8-26 7.2-40.4 7.2-32.4 0-62-13.2-83.2-34.4-21.2-21.2-34.4-50.8-34.4-83.2 0-13.6 2.4-26.8 6.4-38.8 4.4-12.8 10.8-24.4 19.2-34.4 3.6-4.4 2.8-10.8-1.6-14.4-2.8-2-6-2.8-9.2-2-34 9.2-63.6 29.6-84.8 56.8-20.4 26.8-32.4 60-32.4 96 0 43.6 17.6 83.2 46.4 112s68 46.4 112 46.4c36.8 0 70.8-12.8 98-34 27.6-21.6 47.6-52.4 56-87.6 1.6-5.6-1.6-11.2-7.2-12.4z"/>
      </g>
    </g>
  </symbol>
  <symbol id="icon-moon-outline" viewBox="0 0 313 313">
    <g>
      <g>
        <path d="M305.6 178.053c-3.2-.8-6.4 0-9.2 2-10.4 8.8-22.4 16-35.6 20.8-12.4 4.8-26 7.2-40.4 7.2-32.4 0-62-13.2-83.2-34.4-21.2-21.2-34.4-50.8-34.4-83.2 0-13.6 2.4-26.8 6.4-38.8 4.4-12.8 10.8-24.4 19.2-34.4 3.6-4.4 2.8-10.8-1.6-14.4-2.8-2-6-2.8-9.2-2-34 9.2-63.6 29.6-84.8 56.8-20.4 26.8-32.8 60-32.8 96.4 0 43.6 17.6 83.2 46.4 112s68.4 46.4 112 46.4c36.8 0 70.8-12.8 98-34 27.6-21.6 47.6-52.4 56-87.6 2-6-1.2-11.6-6.8-12.8zm-61.2 83.6c-23.2 18.4-52.8 29.6-85.2 29.6-38 0-72.4-15.6-97.2-40.4-24.8-24.8-40.4-59.2-40.4-97.2 0-31.6 10.4-60.4 28.4-83.6 12.4-16 28-29.2 46-38.4-2 4.4-4 8.8-5.6 13.6-5.2 14.4-7.6 29.6-7.6 45.6 0 38 15.6 72.8 40.4 97.6s59.6 40.4 97.6 40.4c16.8 0 32.8-2.8 47.6-8.4 5.2-2 10.4-4 15.2-6.4-9.6 18.4-22.8 34.8-39.2 47.6z"/>
      </g>
    </g>
  </symbol>
</svg>
